<svg class="lds-spinner" width="200px"  height="200px"  xmlns="http://www.w3.org/2000/svg" xmlns:xlink="http://www.w3.org/1999/xlink" viewBox="0 0 100 100" preserveAspectRatio="xMidYMid" style="background: none;"><g transform="rotate(0 50 50)">
  <rect x="47" y="24" rx="9.4" ry="4.8" width="6" height="12" fill="#ffa19a">
    <animate attributeName="opacity" values="1;0" keyTimes="0;1" dur="2.3s" begin="-2.108333333333333s" repeatCount="indefinite"></animate>
  </rect>
</g><g transform="rotate(30 50 50)">
  <rect x="47" y="24" rx="9.4" ry="4.8" width="6" height="12" fill="#ffa19a">
    <animate attributeName="opacity" values="1;0" keyTimes="0;1" dur="2.3s" begin="-1.9166666666666667s" repeatCount="indefinite"></animate>
  </rect>
</g><g transform="rotate(60 50 50)">
  <rect x="47" y="24" rx="9.4" ry="4.8" width="6" height="12" fill="#ffa19a">
    <animate attributeName="opacity" values="1;0" keyTimes="0;1" dur="2.3s" begin="-1.7249999999999999s" repeatCount="indefinite"></animate>
  </rect>
</g><g transform="rotate(90 50 50)">
  <rect x="47" y="24" rx="9.4" ry="4.8" width="6" height="12" fill="#ffa19a">
    <animate attributeName="opacity" values="1;0" keyTimes="0;1" dur="2.3s" begin="-1.5333333333333332s" repeatCount="indefinite"></animate>
  </rect>
</g><g transform="rotate(120 50 50)">
  <rect x="47" y="24" rx="9.4" ry="4.8" width="6" height="12" fill="#ffa19a">
    <animate attributeName="opacity" values="1;0" keyTimes="0;1" dur="2.3s" begin="-1.3416666666666666s" repeatCount="indefinite"></animate>
  </rect>
</g><g transform="rotate(150 50 50)">
  <rect x="47" y="24" rx="9.4" ry="4.8" width="6" height="12" fill="#ffa19a">
    <animate attributeName="opacity" values="1;0" keyTimes="0;1" dur="2.3s" begin="-1.15s" repeatCount="indefinite"></animate>
  </rect>
</g><g transform="rotate(180 50 50)">
  <rect x="47" y="24" rx="9.4" ry="4.8" width="6" height="12" fill="#ffa19a">
    <animate attributeName="opacity" values="1;0" keyTimes="0;1" dur="2.3s" begin="-0.9583333333333334s" repeatCount="indefinite"></animate>
  </rect>
</g><g transform="rotate(210 50 50)">
  <rect x="47" y="24" rx="9.4" ry="4.8" width="6" height="12" fill="#ffa19a">
    <animate attributeName="opacity" values="1;0" keyTimes="0;1" dur="2.3s" begin="-0.7666666666666666s" repeatCount="indefinite"></animate>
  </rect>
</g><g transform="rotate(240 50 50)">
  <rect x="47" y="24" rx="9.4" ry="4.8" width="6" height="12" fill="#ffa19a">
    <animate attributeName="opacity" values="1;0" keyTimes="0;1" dur="2.3s" begin="-0.575s" repeatCount="indefinite"></animate>
  </rect>
</g><g transform="rotate(270 50 50)">
  <rect x="47" y="24" rx="9.4" ry="4.8" width="6" height="12" fill="#ffa19a">
    <animate attributeName="opacity" values="1;0" keyTimes="0;1" dur="2.3s" begin="-0.3833333333333333s" repeatCount="indefinite"></animate>
  </rect>
</g><g transform="rotate(300 50 50)">
  <rect x="47" y="24" rx="9.4" ry="4.8" width="6" height="12" fill="#ffa19a">
    <animate attributeName="opacity" values="1;0" keyTimes="0;1" dur="2.3s" begin="-0.19166666666666665s" repeatCount="indefinite"></animate>
  </rect>
</g><g transform="rotate(330 50 50)">
  <rect x="47" y="24" rx="9.4" ry="4.8" width="6" height="12" fill="#ffa19a">
    <animate attributeName="opacity" values="1;0" keyTimes="0;1" dur="2.3s" begin="0s" repeatCount="indefinite"></animate>
  </rect>
</g></svg>